<?xml version="1.0" encoding="UTF-8" standalone="no"?>
<!DOCTYPE svg PUBLIC "-//W3C//DTD SVG 1.1//EN"
 "http://www.w3.org/Graphics/SVG/1.1/DTD/svg11.dtd">
<!-- Generated by graphviz version 2.43.0 (0)
 -->
<!-- Title: %3 Pages: 1 -->
<svg width="404pt" height="659pt"
 viewBox="0.00 0.00 404.00 659.00" xmlns="http://www.w3.org/2000/svg" xmlns:xlink="http://www.w3.org/1999/xlink">
<g id="graph0" class="graph" transform="scale(1 1) rotate(0) translate(4 655)">
<title>%3</title>
<polygon fill="white" stroke="transparent" points="-4,4 -4,-655 400,-655 400,4 -4,4"/>
<g id="clust1" class="cluster">
<title>cluster_0</title>
<polygon fill="none" stroke="black" points="8,-8 8,-643 388,-643 388,-8 8,-8"/>
<text text-anchor="middle" x="198" y="-627.8" font-family="Times,serif" font-size="14.00">int main()</text>
</g>
<g id="clust2" class="cluster">
<title>cluster_1</title>
<polygon fill="none" stroke="black" points="297,-536 297,-612 367,-612 367,-536 297,-536"/>
<text text-anchor="middle" x="332" y="-596.8" font-family="Times,serif" font-size="14.00">Int test()</text>
</g>
<!-- INFOa0x7ffec2a533900 -->
<g id="node1" class="node">
<title>INFOa0x7ffec2a533900</title>
<polygon fill="none" stroke="black" points="212,-456.5 212,-492.5 266,-492.5 266,-456.5 212,-456.5"/>
<text text-anchor="middle" x="239" y="-470.8" font-family="Times,serif" font-size="14.00">a = 5</text>
</g>
<!-- INFOtmp_20x7ffec2a536200 -->
<g id="node9" class="node">
<title>INFOtmp_20x7ffec2a536200</title>
<path fill="red" stroke="red" d="M141,-368.5C141,-368.5 213,-368.5 213,-368.5 219,-368.5 225,-374.5 225,-380.5 225,-380.5 225,-392.5 225,-392.5 225,-398.5 219,-404.5 213,-404.5 213,-404.5 141,-404.5 141,-404.5 135,-404.5 129,-398.5 129,-392.5 129,-392.5 129,-380.5 129,-380.5 129,-374.5 135,-368.5 141,-368.5"/>
<text text-anchor="middle" x="177" y="-382.8" font-family="Times,serif" font-size="14.00">tmp_2 = a + b</text>
</g>
<!-- INFOa0x7ffec2a533900&#45;&gt;INFOtmp_20x7ffec2a536200 -->
<g id="edge7" class="edge">
<title>INFOa0x7ffec2a533900:name&#45;&gt;INFOtmp_20x7ffec2a536200:name</title>
<path fill="none" stroke="black" d="M226.15,-456.27C217.34,-443.76 205.51,-426.96 195.66,-412.99"/>
<polygon fill="black" stroke="black" points="198.45,-410.87 189.83,-404.71 192.73,-414.9 198.45,-410.87"/>
<text text-anchor="middle" x="219" y="-426.8" font-family="Times,serif" font-size="14.00"> + </text>
</g>
<!-- INFOb0x7ffec2a533400 -->
<g id="node2" class="node">
<title>INFOb0x7ffec2a533400</title>
<polygon fill="none" stroke="black" points="140,-456.5 140,-492.5 194,-492.5 194,-456.5 140,-456.5"/>
<text text-anchor="middle" x="167" y="-470.8" font-family="Times,serif" font-size="14.00">b = 4</text>
</g>
<!-- INFOd0x7ffec2a532f02 -->
<g id="node6" class="node">
<title>INFOd0x7ffec2a532f02</title>
<polygon fill="none" stroke="black" points="57,-368.5 57,-404.5 111,-404.5 111,-368.5 57,-368.5"/>
<text text-anchor="middle" x="84" y="-382.8" font-family="Times,serif" font-size="14.00">d = 4</text>
</g>
<!-- INFOb0x7ffec2a533400&#45;&gt;INFOd0x7ffec2a532f02 -->
<g id="edge4" class="edge">
<title>INFOb0x7ffec2a533400:name&#45;&gt;INFOd0x7ffec2a532f02:name</title>
<path fill="none" stroke="black" d="M149.8,-456.27C137.78,-443.52 121.57,-426.33 108.24,-412.2"/>
<polygon fill="black" stroke="black" points="110.58,-409.58 101.18,-404.71 105.49,-414.39 110.58,-409.58"/>
<text text-anchor="middle" x="138" y="-426.8" font-family="Times,serif" font-size="14.00"> = </text>
</g>
<!-- INFOb0x7ffec2a533400&#45;&gt;INFOtmp_20x7ffec2a536200 -->
<g id="edge8" class="edge">
<title>INFOb0x7ffec2a533400:name&#45;&gt;INFOtmp_20x7ffec2a536200:name</title>
<path fill="none" stroke="black" d="M169.07,-456.27C170.43,-444.35 172.22,-428.54 173.76,-414.98"/>
<polygon fill="black" stroke="black" points="177.28,-415.04 174.93,-404.71 170.32,-414.25 177.28,-415.04"/>
<text text-anchor="middle" x="180" y="-426.8" font-family="Times,serif" font-size="14.00"> + </text>
</g>
<!-- INFOd0x7ffec2a532f00 -->
<g id="node3" class="node">
<title>INFOd0x7ffec2a532f00</title>
<polygon fill="none" stroke="black" points="112,-544.5 112,-580.5 166,-580.5 166,-544.5 112,-544.5"/>
<text text-anchor="middle" x="139" y="-558.8" font-family="Times,serif" font-size="14.00">d = 5</text>
</g>
<!-- INFOd0x7ffec2a532f01 -->
<g id="node5" class="node">
<title>INFOd0x7ffec2a532f01</title>
<polygon fill="none" stroke="black" points="16.5,-456.5 16.5,-492.5 121.5,-492.5 121.5,-456.5 16.5,-456.5"/>
<text text-anchor="middle" x="69" y="-470.8" font-family="Times,serif" font-size="14.00">d = d += tmp_0</text>
</g>
<!-- INFOd0x7ffec2a532f00&#45;&gt;INFOd0x7ffec2a532f01 -->
<g id="edge1" class="edge">
<title>INFOd0x7ffec2a532f00:name&#45;&gt;INFOd0x7ffec2a532f01:name</title>
<path fill="none" stroke="black" d="M124.5,-544.27C114.45,-531.64 100.93,-514.65 89.75,-500.59"/>
<polygon fill="black" stroke="black" points="92.45,-498.36 83.49,-492.71 86.97,-502.72 92.45,-498.36"/>
<text text-anchor="middle" x="121.5" y="-514.8" font-family="Times,serif" font-size="14.00"> += </text>
</g>
<!-- INFOtmp_00x7ffec2a534a00 -->
<g id="node4" class="node">
<title>INFOtmp_00x7ffec2a534a00</title>
<path fill="red" stroke="red" d="M32,-544.5C32,-544.5 82,-544.5 82,-544.5 88,-544.5 94,-550.5 94,-556.5 94,-556.5 94,-568.5 94,-568.5 94,-574.5 88,-580.5 82,-580.5 82,-580.5 32,-580.5 32,-580.5 26,-580.5 20,-574.5 20,-568.5 20,-568.5 20,-556.5 20,-556.5 20,-550.5 26,-544.5 32,-544.5"/>
<text text-anchor="middle" x="57" y="-558.8" font-family="Times,serif" font-size="14.00">tmp_0 = 4</text>
</g>
<!-- INFOtmp_00x7ffec2a534a00&#45;&gt;INFOd0x7ffec2a532f01 -->
<g id="edge2" class="edge">
<title>INFOtmp_00x7ffec2a534a00:name&#45;&gt;INFOd0x7ffec2a532f01:name</title>
<path fill="none" stroke="black" d="M59.49,-544.27C61.11,-532.35 63.27,-516.54 65.12,-502.98"/>
<polygon fill="black" stroke="black" points="68.63,-503.09 66.52,-492.71 61.7,-502.15 68.63,-503.09"/>
<text text-anchor="middle" x="75.5" y="-514.8" font-family="Times,serif" font-size="14.00"> += </text>
</g>
<!-- INFOd0x7ffec2a532f01&#45;&gt;INFOd0x7ffec2a532f02 -->
<g id="edge3" class="edge">
<title>INFOd0x7ffec2a532f01:name&#45;&gt;INFOd0x7ffec2a532f02:name</title>
<path fill="none" stroke="black" d="M72.11,-456.27C74.16,-444.23 76.89,-428.22 79.21,-414.58"/>
<polygon fill="black" stroke="black" points="82.67,-415.16 80.9,-404.71 75.77,-413.98 82.67,-415.16"/>
<text text-anchor="middle" x="85" y="-426.8" font-family="Times,serif" font-size="14.00"> = </text>
</g>
<!-- INFOtmp_10x7ffec2a535500 -->
<g id="node7" class="node">
<title>INFOtmp_10x7ffec2a535500</title>
<path fill="red" stroke="red" d="M62.5,-280.5C62.5,-280.5 121.5,-280.5 121.5,-280.5 127.5,-280.5 133.5,-286.5 133.5,-292.5 133.5,-292.5 133.5,-304.5 133.5,-304.5 133.5,-310.5 127.5,-316.5 121.5,-316.5 121.5,-316.5 62.5,-316.5 62.5,-316.5 56.5,-316.5 50.5,-310.5 50.5,-304.5 50.5,-304.5 50.5,-292.5 50.5,-292.5 50.5,-286.5 56.5,-280.5 62.5,-280.5"/>
<text text-anchor="middle" x="92" y="-294.8" font-family="Times,serif" font-size="14.00">tmp_1 = &#45; d</text>
</g>
<!-- INFOd0x7ffec2a532f02&#45;&gt;INFOtmp_10x7ffec2a535500 -->
<g id="edge5" class="edge">
<title>INFOd0x7ffec2a532f02:name&#45;&gt;INFOtmp_10x7ffec2a535500:name</title>
<path fill="none" stroke="black" d="M85.66,-368.27C86.74,-356.35 88.18,-340.54 89.41,-326.98"/>
<polygon fill="black" stroke="black" points="92.92,-326.99 90.34,-316.71 85.95,-326.35 92.92,-326.99"/>
<text text-anchor="middle" x="111.5" y="-338.8" font-family="Times,serif" font-size="14.00"> unary &#45; </text>
</g>
<!-- INFOz0x7ffec2a532a00 -->
<g id="node8" class="node">
<title>INFOz0x7ffec2a532a00</title>
<polygon fill="none" stroke="black" points="47,-192.5 47,-228.5 151,-228.5 151,-192.5 47,-192.5"/>
<text text-anchor="middle" x="99" y="-206.8" font-family="Times,serif" font-size="14.00">z = tmp_1 = &#45; d</text>
</g>
<!-- INFOtmp_10x7ffec2a535500&#45;&gt;INFOz0x7ffec2a532a00 -->
<g id="edge6" class="edge">
<title>INFOtmp_10x7ffec2a535500:name&#45;&gt;INFOz0x7ffec2a532a00:name</title>
<path fill="none" stroke="black" d="M93.45,-280.27C94.4,-268.35 95.66,-252.54 96.73,-238.98"/>
<polygon fill="black" stroke="black" points="100.25,-238.96 97.55,-228.71 93.27,-238.4 100.25,-238.96"/>
<text text-anchor="middle" x="114.5" y="-250.8" font-family="Times,serif" font-size="14.00"> move </text>
</g>
<!-- INFOtmp_30x7ffec2a535d00 -->
<g id="node10" class="node">
<title>INFOtmp_30x7ffec2a535d00</title>
<path fill="red" stroke="red" d="M75.5,-104.5C75.5,-104.5 176.5,-104.5 176.5,-104.5 182.5,-104.5 188.5,-110.5 188.5,-116.5 188.5,-116.5 188.5,-128.5 188.5,-128.5 188.5,-134.5 182.5,-140.5 176.5,-140.5 176.5,-140.5 75.5,-140.5 75.5,-140.5 69.5,-140.5 63.5,-134.5 63.5,-128.5 63.5,-128.5 63.5,-116.5 63.5,-116.5 63.5,-110.5 69.5,-104.5 75.5,-104.5"/>
<text text-anchor="middle" x="126" y="-118.8" font-family="Times,serif" font-size="14.00">tmp_3 = tmp_2 + z</text>
</g>
<!-- INFOz0x7ffec2a532a00&#45;&gt;INFOtmp_30x7ffec2a535d00 -->
<g id="edge10" class="edge">
<title>INFOz0x7ffec2a532a00:name&#45;&gt;INFOtmp_30x7ffec2a535d00:name</title>
<path fill="none" stroke="black" d="M104.59,-192.27C108.29,-180.23 113.2,-164.22 117.38,-150.58"/>
<polygon fill="black" stroke="black" points="120.83,-151.3 120.41,-140.71 114.13,-149.24 120.83,-151.3"/>
<text text-anchor="middle" x="122" y="-162.8" font-family="Times,serif" font-size="14.00"> + </text>
</g>
<!-- INFOtmp_20x7ffec2a536200&#45;&gt;INFOtmp_30x7ffec2a535d00 -->
<g id="edge9" class="edge">
<title>INFOtmp_20x7ffec2a536200:name&#45;&gt;INFOtmp_30x7ffec2a535d00:name</title>
<path fill="none" stroke="black" d="M177.6,-368.41C178.28,-333.57 177.52,-255.03 160,-192 155.93,-177.36 148.82,-162.08 142.14,-149.59"/>
<polygon fill="black" stroke="black" points="145.09,-147.69 137.18,-140.64 138.97,-151.08 145.09,-147.69"/>
<text text-anchor="middle" x="180" y="-250.8" font-family="Times,serif" font-size="14.00"> + </text>
</g>
<!-- INFOc0x7ffec2a532500 -->
<g id="node11" class="node">
<title>INFOc0x7ffec2a532500</title>
<polygon fill="none" stroke="black" points="53,-16.5 53,-52.5 199,-52.5 199,-16.5 53,-16.5"/>
<text text-anchor="middle" x="126" y="-30.8" font-family="Times,serif" font-size="14.00">c = tmp_3 = tmp_2 + z</text>
</g>
<!-- INFOtmp_30x7ffec2a535d00&#45;&gt;INFOc0x7ffec2a532500 -->
<g id="edge11" class="edge">
<title>INFOtmp_30x7ffec2a535d00:name&#45;&gt;INFOc0x7ffec2a532500:name</title>
<path fill="none" stroke="black" d="M126,-104.27C126,-92.35 126,-76.54 126,-62.98"/>
<polygon fill="black" stroke="black" points="129.5,-62.71 126,-52.71 122.5,-62.71 129.5,-62.71"/>
<text text-anchor="middle" x="145.5" y="-74.8" font-family="Times,serif" font-size="14.00"> move </text>
</g>
<!-- INFOa0x7ffec2a531000 -->
<g id="node12" class="node">
<title>INFOa0x7ffec2a531000</title>
<polygon fill="none" stroke="black" points="305,-544.5 305,-580.5 359,-580.5 359,-544.5 305,-544.5"/>
<text text-anchor="middle" x="332" y="-558.8" font-family="Times,serif" font-size="14.00">a = 5</text>
</g>
<!-- INFOtmp_40x7ffec2a536a00 -->
<g id="node13" class="node">
<title>INFOtmp_40x7ffec2a536a00</title>
<path fill="red" stroke="red" d="M296,-456.5C296,-456.5 368,-456.5 368,-456.5 374,-456.5 380,-462.5 380,-468.5 380,-468.5 380,-480.5 380,-480.5 380,-486.5 374,-492.5 368,-492.5 368,-492.5 296,-492.5 296,-492.5 290,-492.5 284,-486.5 284,-480.5 284,-480.5 284,-468.5 284,-468.5 284,-462.5 290,-456.5 296,-456.5"/>
<text text-anchor="middle" x="332" y="-470.8" font-family="Times,serif" font-size="14.00">tmp_4 = a = 5</text>
</g>
<!-- INFOa0x7ffec2a531000&#45;&gt;INFOtmp_40x7ffec2a536a00 -->
<g id="edge12" class="edge">
<title>INFOa0x7ffec2a531000:name&#45;&gt;INFOtmp_40x7ffec2a536a00:name</title>
<path fill="none" stroke="black" d="M332,-544.27C332,-532.35 332,-516.54 332,-502.98"/>
<polygon fill="black" stroke="black" points="335.5,-502.71 332,-492.71 328.5,-502.71 335.5,-502.71"/>
<text text-anchor="middle" x="351.5" y="-514.8" font-family="Times,serif" font-size="14.00"> move </text>
</g>
<!-- INFOret0x7ffec2a532000 -->
<g id="node14" class="node">
<title>INFOret0x7ffec2a532000</title>
<polygon fill="none" stroke="black" points="254,-368.5 254,-404.5 380,-404.5 380,-368.5 254,-368.5"/>
<text text-anchor="middle" x="317" y="-382.8" font-family="Times,serif" font-size="14.00">ret = tmp_4 = a = 5</text>
</g>
<!-- INFOtmp_40x7ffec2a536a00&#45;&gt;INFOret0x7ffec2a532000 -->
<g id="edge13" class="edge">
<title>INFOtmp_40x7ffec2a536a00:name&#45;&gt;INFOret0x7ffec2a532000:name</title>
<path fill="none" stroke="black" d="M328.89,-456.27C326.84,-444.23 324.11,-428.22 321.79,-414.58"/>
<polygon fill="black" stroke="black" points="325.23,-413.98 320.1,-404.71 318.33,-415.16 325.23,-413.98"/>
<text text-anchor="middle" x="344.5" y="-426.8" font-family="Times,serif" font-size="14.00"> move </text>
</g>
</g>
</svg>
